HIERARCHY
ROOT Hips
{
     OFFSET 1.88212 96.90440 -13.34250
     CHANNELS 6 Xposition Yposition Zposition Zrotation Xrotation Yrotation
     JOINT Spine
     {
          OFFSET 0.00000 11.89050 0.00000
          CHANNELS 3 Zrotation Xrotation Yrotation
          JOINT Spine1
          {
               OFFSET -0.00000 25.65740 0.12766
               CHANNELS 3 Zrotation Xrotation Yrotation
               JOINT HEad
               {
                    OFFSET 0.00000 8.73416 0.01134
                    CHANNELS 3 Zrotation Xrotation Yrotation
                    End Site
                    {
                         OFFSET -0.29000 12.77420 2.51395
                    }
               }
               JOINT LeftShoulder1
               {
                    OFFSET 8.99000 -0.36225 -0.22000
                    CHANNELS 3 Zrotation Xrotation Yrotation
                    JOINT LeftArm
                    {
                         OFFSET 10.28270 -0.00338 0.32212
                         CHANNELS 3 Zrotation Xrotation Yrotation
                         JOINT LeftForeArm
                         {
                              OFFSET 32.76690 0.09914 -1.42434
                              CHANNELS 3 Zrotation Xrotation Yrotation
                              JOINT LeftHand
                              {
                                   OFFSET 27.56430 0.08536 1.02216
                                   CHANNELS 3 Zrotation Xrotation Yrotation
                                   End Site
                                   {
                                        OFFSET 16.74430 -0.60000 1.50291
                                   }
                              }
                         }
                    }
               }
               JOINT RightShoulder
               {
                    OFFSET -8.99000 -0.36225 -0.22000
                    CHANNELS 3 Zrotation Xrotation Yrotation
                    JOINT RightArm
                    {
                         OFFSET -10.28270 -0.00338 0.32212
                         CHANNELS 3 Zrotation Xrotation Yrotation
                         JOINT RightForeArm
                         {
                              OFFSET -32.89710 0.09914 -1.42434
                              CHANNELS 3 Zrotation Xrotation Yrotation
                              JOINT RightHand
                              {
                                   OFFSET -27.49210 0.08536 1.02216
                                   CHANNELS 3 Zrotation Xrotation Yrotation
                                   End Site
                                   {
                                        OFFSET -16.63120 -0.60000 1.50291
                                   }
                              }
                         }
                    }
               }
          }
     }
     JOINT LeftUpLeg
     {
          OFFSET 8.94580 -8.66707 0.10165
          CHANNELS 3 Zrotation Xrotation Yrotation
          JOINT LeftLeg
          {
               OFFSET 0.00000 -44.42270 1.37270
               CHANNELS 3 Zrotation Xrotation Yrotation
               JOINT LeftFoot
               {
                    OFFSET -0.25355 -42.09240 -1.46059
                    CHANNELS 3 Zrotation Xrotation Yrotation
                    JOINT LeftToes
                    {
                         OFFSET -0.04000 -4.41509 8.49910
                         CHANNELS 3 Zrotation Xrotation Yrotation
                         End Site
                         {
                              OFFSET 0.08000 -0.04745 9.77979
                         }
                    }
               }
          }
     }
     JOINT RightUpLeg
     {
          OFFSET -8.94580 -8.66707 0.10165
          CHANNELS 3 Zrotation Xrotation Yrotation
          JOINT RightLeg
          {
               OFFSET 0.00000 -44.42270 1.37270
               CHANNELS 3 Zrotation Xrotation Yrotation
               JOINT RightFoot
               {
                    OFFSET 0.25355 -42.09240 -1.46059
                    CHANNELS 3 Zrotation Xrotation Yrotation
                    JOINT RightToes
                    {
                         OFFSET 0.04000 -4.41509 8.49910
                         CHANNELS 3 Zrotation Xrotation Yrotation
                         End Site
                         {
                              OFFSET -0.08000 -0.13745 9.77979
                         }
                    }
               }
          }
     }
}
MOTION
Frames: 13
Frame Time: 0.01667
49.22674 97.33854 0.47843 2.55798 12.22924 141.94844 -12.15270 23.69712 -7.20630 0.00800 -0.00874 -0.00262 -1.23194 -2.54808 22.62872 -1.77911 10.93093 1.66478 -162.95543 -29.94576 -142.80138 -105.01588 71.84215 -16.06598 23.24787 7.90956 -12.60400 6.86398 11.48561 -2.17019 76.19965 3.94139 87.93201 -7.67218 25.91253 104.96387 25.83455 6.44919 10.38404 3.84899 4.59132 -27.12013 -16.22163 -0.45256 98.25343 -6.82502 0.19923 -0.09295 10.36339 36.93158 -0.56816 -17.16285 0.38968 6.75635 25.77057 5.38841 -29.08822 -44.76991 -0.04092 0.00382 24.94325 -19.33218 17.50187 
49.21757 97.89689 1.22068 -0.40334 20.13029 140.96841 -20.64025 27.70505 -4.52947 0.00839 -0.00175 -0.00097 -6.55570 -2.48956 20.17535 -2.19526 10.16470 2.34464 -155.75053 -35.97601 -139.06819 -75.65318 69.87445 -42.57555 21.71449 7.99763 -14.48417 5.95551 10.83062 -1.23032 71.75318 8.54004 88.72622 -10.40176 23.34887 104.38343 11.99986 9.38419 0.54464 -2.04481 4.01165 -22.83785 -23.11566 7.40622 99.97102 -11.59651 0.15196 -0.08015 12.64601 32.32671 -5.91587 -24.06462 3.42344 10.30029 22.31318 7.19412 -29.44006 -30.98792 0.03738 0.00096 14.60399 -19.20035 17.58281 
49.22426 98.33670 1.95318 -3.43475 28.99106 140.01666 -30.36699 31.07427 -0.36124 0.00436 0.00447 0.00082 -11.64948 -1.68982 17.94508 -2.45692 9.94901 3.04888 -145.68129 -42.50594 -132.96986 -50.26510 62.69782 -61.22327 20.21352 6.15359 -19.13400 5.20039 10.67709 -0.24574 68.59314 11.43676 89.16962 -11.91428 21.57550 103.65512 32.25306 2.42268 20.39509 -8.17627 3.16054 -16.88812 -30.64550 16.13007 97.64053 -15.69718 0.04682 -0.19113 10.98320 29.15944 -4.29302 -31.89236 6.37774 14.91325 20.30787 8.35882 -29.92163 -18.56648 0.03814 -0.01602 4.09447 -19.01242 17.54154 
49.26371 98.74712 2.63943 -6.00489 36.57732 139.46999 -38.57233 32.94233 3.69967 0.00500 0.01156 0.00393 -16.55856 -0.32856 16.04226 -2.67282 10.13729 3.87708 -132.24451 -48.48469 -123.52812 -33.64893 51.71873 -69.07634 19.15630 12.56938 -8.53085 4.32110 10.86970 0.94271 66.19346 16.83131 90.22629 -15.75464 20.01320 101.47631 19.63482 -1.79041 16.01128 -12.37488 0.85886 -10.21990 -37.47920 26.01835 92.66436 -21.74572 -0.15217 -0.26730 -0.34979 20.86896 -9.79330 -38.81794 8.43359 19.30717 19.20696 9.15822 -30.47593 -6.91484 0.03474 -0.01178 -6.44794 -18.89888 17.46330 
49.37372 99.18073 3.31552 -8.14989 42.99242 139.13939 -45.01023 33.72806 7.29025 0.00049 0.01537 0.00477 -21.27073 1.43781 14.53754 -2.92663 10.63328 4.69775 -114.98746 -52.73643 -110.03332 -22.32152 38.15857 -70.30921 15.04100 0.48590 -28.04454 3.52269 11.33236 2.05322 64.45726 20.16305 90.61703 -17.71083 19.31634 99.93207 27.98991 3.15968 17.28643 -14.54798 -2.54799 -3.01751 -42.05028 36.56950 85.59841 -30.96379 -0.47006 -0.35341 7.15960 18.89869 2.69687 -45.08403 9.85643 23.40402 20.53921 8.99579 -32.03436 2.27250 0.08875 0.02644 -16.49552 -19.44710 17.93849 
49.57893 99.60564 4.04400 -9.86005 48.37243 138.88155 -49.67008 33.82111 10.23707 -0.00368 0.01908 0.00492 -25.77044 3.46316 13.45944 -3.35046 11.35672 5.30701 -94.75262 -53.97261 -93.16972 -13.80484 22.75636 -67.45270 12.49649 11.04002 -9.90283 2.55740 11.99377 3.07423 63.40857 22.30153 90.61951 -13.48734 20.38705 97.83507 19.88062 5.24593 12.25971 -14.63356 -6.61183 4.64052 -42.90266 44.67943 77.37136 -30.18005 0.00697 -0.02288 -7.65965 3.87926 -1.26525 -50.66716 10.82480 27.14110 21.54276 8.90967 -33.30035 11.76346 0.10066 0.00349 -26.25609 -19.91449 18.34648 
49.87775 99.88179 4.86093 -11.13819 52.87142 138.61133 -52.77259 33.50882 12.51684 -0.00974 0.02265 0.00354 -30.02004 5.63448 12.82164 -4.21929 12.26723 5.65744 -74.53495 -51.33149 -75.71828 -7.19391 5.98294 -61.89043 10.18321 2.69833 -28.26970 1.37818 12.86610 3.91235 62.84806 23.94656 90.29561 -10.95362 21.25534 96.23209 25.28196 10.20297 10.79023 -12.50610 -10.88669 12.74691 -41.49054 50.40215 70.19566 -30.12197 -0.03855 0.02379 -16.94117 -4.82343 0.58095 -55.48848 11.45130 30.45529 22.43831 8.86370 -34.36370 21.20749 0.09621 -0.00937 -35.80572 -20.35294 18.66028 
50.23451 99.95926 5.73650 -11.97706 56.61132 138.27191 -54.59358 32.99192 14.16581 -0.01660 0.02696 0.00207 -33.98840 7.84982 12.61733 -5.36712 13.34582 5.63106 -58.00795 -44.86936 -60.84542 -2.08269 -11.41738 -54.50803 0.45984 8.60768 -11.19443 -0.04257 13.93383 4.62097 62.65218 25.29939 89.77349 -9.47247 22.02352 94.91009 20.59557 10.56770 8.78959 -8.03407 -14.94846 21.28741 -38.29882 54.58518 63.34360 -30.09371 -0.03715 0.01156 -20.05063 -10.98567 -1.46335 -59.47517 11.83441 33.29948 23.34772 8.85631 -35.29755 30.35744 0.08884 -0.01658 -45.15712 -20.81889 18.91543 
50.62038 99.78934 6.53063 -12.31194 59.67236 137.77611 -55.32674 32.40649 15.24105 -0.02100 0.03006 0.00181 -37.66330 10.03574 12.81495 -6.45705 14.50103 5.45479 -46.54426 -35.65042 -49.14848 1.23025 -26.67537 -51.79933 -1.94704 1.58506 -22.52986 -1.38061 15.10210 5.30926 62.53756 26.45701 88.91443 -8.74069 22.88867 93.86631 23.59050 12.66762 8.49136 -1.19512 -18.32741 30.08949 -32.74218 57.45959 54.99650 -30.04214 -0.05108 -0.00804 -12.46631 -16.93952 -2.80830 -62.59980 12.00080 35.66278 24.66024 9.00056 -35.84254 7.75287 -0.11347 -0.06014 -23.25721 -21.31768 18.94918 
51.05054 99.41371 6.95873 -11.98543 62.09669 136.91159 -55.00189 31.80526 15.81080 -0.02011 0.03011 0.00344 -39.66242 12.28629 13.41561 -6.84045 15.36735 4.90557 -39.41499 -25.43404 -38.95901 1.37307 -40.28831 -53.32346 -2.56981 7.71218 -19.37175 -2.18213 15.96506 6.06071 62.37725 27.47325 87.53107 -8.38271 23.64927 92.99360 19.86825 12.87898 8.41663 7.74231 -20.36228 38.52655 -26.58335 58.30088 46.15542 -28.48262 0.01239 -0.13215 -4.86743 -18.43652 -3.21505 -64.86626 12.07763 37.58308 26.24381 9.00283 -36.39815 -15.10789 -0.07834 -0.15863 -1.58873 -22.04664 18.99698 
51.55115 98.98645 6.86028 -7.29924 62.95992 132.54007 -51.96301 31.64785 16.22160 -0.02011 0.02456 0.00459 -40.17606 14.34033 14.15719 2.06971 8.64819 3.21759 -44.31171 -11.37710 -28.48173 0.63387 -49.00986 -55.18921 -2.32859 4.22373 -25.36580 5.90238 10.61339 9.47313 59.47740 27.73465 76.70323 -8.00054 24.28740 92.06458 20.97351 14.41692 9.15708 19.52791 -20.52987 45.30386 -22.23929 56.61270 38.37710 -26.97235 0.03287 -0.17062 -5.96271 -17.97252 -8.96354 -64.67999 12.59794 39.46507 27.96219 9.18809 -36.99747 -12.20074 0.01128 0.01675 -5.89672 -23.09727 18.72307 
52.11945 98.61783 6.12694 0.63560 62.18809 125.26659 -45.24031 31.89441 16.25693 0.08388 0.00926 0.03950 -40.67981 16.51216 14.56139 8.75402 2.39655 3.58785 -51.09765 -4.06649 -20.28564 -3.57187 -50.59569 -57.71568 17.88944 12.49213 -22.40735 13.41942 5.83127 11.85041 58.99120 29.47701 68.66960 -7.06488 25.44370 92.17902 8.02604 14.15813 23.22635 33.06417 -19.55801 49.99172 -20.78246 53.17348 32.84235 -25.59557 0.05342 -0.17365 -5.46015 -18.62259 -10.67336 -62.69720 13.44466 41.46028 29.38920 9.66844 -37.34130 -8.95338 0.01352 0.03512 -10.10228 -24.31227 18.50450 
52.73803 98.33161 4.70682 7.39282 61.06502 119.01201 -36.99985 32.02494 15.42634 0.08428 -0.00485 0.03706 -41.03726 18.69252 14.73703 4.54948 4.20415 2.46597 -49.38057 -8.48678 -18.06078 -4.44331 -50.71247 -59.55844 6.17813 11.48387 -19.74034 10.70287 7.53119 10.92601 62.86057 30.46408 71.85463 -5.86897 27.01156 92.78875 24.44953 11.55429 1.55494 45.89423 -18.60589 52.67530 -21.22818 48.95356 29.03294 -25.34385 0.01245 -0.06433 -5.17498 -16.66333 -15.12401 -61.26985 14.43589 43.24632 30.49019 10.36691 -37.33706 -5.26486 0.01628 0.04578 -14.20751 -25.83736 18.25436 
